%TF.GenerationSoftware,KiCad,Pcbnew,9.0.5*%
%TF.CreationDate,2026-04-16T14:47:37-05:00*%
%TF.ProjectId,PCB_sesame,5043425f-7365-4736-916d-652e6b696361,rev?*%
%TF.SameCoordinates,Original*%
%TF.FileFunction,Plated,1,2,PTH,Drill*%
%TF.FilePolarity,Positive*%
%FSLAX46Y46*%
G04 Gerber Fmt 4.6, Leading zero omitted, Abs format (unit mm)*
G04 Created by KiCad (PCBNEW 9.0.5) date 2026-04-16 14:47:37*
%MOMM*%
%LPD*%
G01*
G04 APERTURE LIST*
%TA.AperFunction,ComponentDrill*%
%ADD10C,0.950000*%
%TD*%
%TA.AperFunction,ComponentDrill*%
%ADD11C,1.000000*%
%TD*%
%TA.AperFunction,ComponentDrill*%
%ADD12C,1.020000*%
%TD*%
G04 APERTURE END LIST*
D10*
%TO.C,J1*%
X258000000Y-58500000D03*
X258000000Y-61000000D03*
X258000000Y-63500000D03*
X258000000Y-66000000D03*
D11*
%TO.C,J9*%
X205920000Y-43000000D03*
%TO.C,J7*%
X205920000Y-47000000D03*
%TO.C,J3*%
X205920000Y-55000000D03*
%TO.C,J8*%
X205920000Y-59000000D03*
%TO.C,J6*%
X205920000Y-63000000D03*
%TO.C,J4*%
X205920000Y-67000000D03*
%TO.C,J2*%
X205920000Y-71000000D03*
%TO.C,J5*%
X205925000Y-51000000D03*
%TO.C,J9*%
X208460000Y-43000000D03*
%TO.C,J7*%
X208460000Y-47000000D03*
%TO.C,J3*%
X208460000Y-55000000D03*
%TO.C,J8*%
X208460000Y-59000000D03*
%TO.C,J6*%
X208460000Y-63000000D03*
%TO.C,J4*%
X208460000Y-67000000D03*
%TO.C,J2*%
X208460000Y-71000000D03*
%TO.C,J5*%
X208465000Y-51000000D03*
%TO.C,J9*%
X211000000Y-43000000D03*
%TO.C,J7*%
X211000000Y-47000000D03*
%TO.C,J3*%
X211000000Y-55000000D03*
%TO.C,J8*%
X211000000Y-59000000D03*
%TO.C,J6*%
X211000000Y-63000000D03*
%TO.C,J4*%
X211000000Y-67000000D03*
%TO.C,J2*%
X211000000Y-71000000D03*
%TO.C,J5*%
X211005000Y-51000000D03*
%TO.C,U1*%
X224620000Y-44180000D03*
X224620000Y-46720000D03*
X227160000Y-44130000D03*
X227160000Y-46720000D03*
X229700000Y-44130000D03*
X229700000Y-46720000D03*
X232240000Y-44130000D03*
X232240000Y-46720000D03*
X234780000Y-44180000D03*
X237320000Y-44180000D03*
X239860000Y-44180000D03*
X242400000Y-44180000D03*
%TO.C,C1*%
X257500000Y-50000000D03*
%TO.C,J10*%
X259000000Y-40500000D03*
X259000000Y-43000000D03*
%TO.C,C1*%
X260000000Y-50000000D03*
D12*
%TO.C,U1*%
X224620000Y-64500000D03*
X224620000Y-67040000D03*
X227160000Y-64450000D03*
X227160000Y-67040000D03*
X229700000Y-64450000D03*
X229700000Y-67040000D03*
X232240000Y-64450000D03*
X232240000Y-67040000D03*
X234780000Y-46720000D03*
X234780000Y-64500000D03*
X234780000Y-67040000D03*
X237320000Y-46720000D03*
X237320000Y-64500000D03*
X237320000Y-67040000D03*
X239860000Y-46720000D03*
X239860000Y-64500000D03*
X239860000Y-67040000D03*
X242400000Y-46720000D03*
X242400000Y-64500000D03*
X242400000Y-67040000D03*
M02*
