%TF.GenerationSoftware,KiCad,Pcbnew,9.0.5*%
%TF.CreationDate,2026-04-16T14:47:28-05:00*%
%TF.ProjectId,PCB_sesame,5043425f-7365-4736-916d-652e6b696361,rev?*%
%TF.SameCoordinates,Original*%
%TF.FileFunction,Soldermask,Top*%
%TF.FilePolarity,Negative*%
%FSLAX46Y46*%
G04 Gerber Fmt 4.6, Leading zero omitted, Abs format (unit mm)*
G04 Created by KiCad (PCBNEW 9.0.5) date 2026-04-16 14:47:28*
%MOMM*%
%LPD*%
G01*
G04 APERTURE LIST*
G04 Aperture macros list*
%AMRoundRect*
0 Rectangle with rounded corners*
0 $1 Rounding radius*
0 $2 $3 $4 $5 $6 $7 $8 $9 X,Y pos of 4 corners*
0 Add a 4 corners polygon primitive as box body*
4,1,4,$2,$3,$4,$5,$6,$7,$8,$9,$2,$3,0*
0 Add four circle primitives for the rounded corners*
1,1,$1+$1,$2,$3*
1,1,$1+$1,$4,$5*
1,1,$1+$1,$6,$7*
1,1,$1+$1,$8,$9*
0 Add four rect primitives between the rounded corners*
20,1,$1+$1,$2,$3,$4,$5,0*
20,1,$1+$1,$4,$5,$6,$7,0*
20,1,$1+$1,$6,$7,$8,$9,0*
20,1,$1+$1,$8,$9,$2,$3,0*%
G04 Aperture macros list end*
%ADD10C,2.200000*%
%ADD11R,1.770000X1.770000*%
%ADD12C,1.770000*%
%ADD13RoundRect,0.260294X0.739706X-0.624706X0.739706X0.624706X-0.739706X0.624706X-0.739706X-0.624706X0*%
%ADD14C,1.700000*%
%ADD15RoundRect,0.260294X-0.739706X0.624706X-0.739706X-0.624706X0.739706X-0.624706X0.739706X0.624706X0*%
%ADD16O,2.000000X1.770000*%
G04 APERTURE END LIST*
D10*
%TO.C,M2*%
X261500000Y-71500000D03*
%TD*%
D11*
%TO.C,J9*%
X205920000Y-43000000D03*
D12*
X208460000Y-43000000D03*
X211000000Y-43000000D03*
%TD*%
D13*
%TO.C,J1*%
X258000000Y-66000000D03*
D12*
X258000000Y-63500000D03*
X258000000Y-61000000D03*
X258000000Y-58500000D03*
%TD*%
%TO.C,C1*%
X257500000Y-50000000D03*
X260000000Y-50000000D03*
%TD*%
D10*
%TO.C,M2*%
X203500000Y-39500000D03*
%TD*%
D11*
%TO.C,J7*%
X205920000Y-47000000D03*
D12*
X208460000Y-47000000D03*
X211000000Y-47000000D03*
%TD*%
D14*
%TO.C,U1*%
X224620000Y-67040000D03*
D12*
X227160000Y-67040000D03*
X229700000Y-67040000D03*
X232240000Y-67040000D03*
X234780000Y-67040000D03*
X237320000Y-67040000D03*
X239860000Y-67040000D03*
X242400000Y-67040000D03*
X224620000Y-64500000D03*
X227160000Y-64450000D03*
X229700000Y-64450000D03*
X232240000Y-64450000D03*
X234780000Y-64500000D03*
X237320000Y-64500000D03*
X239860000Y-64500000D03*
X242400000Y-64500000D03*
X224620000Y-46720000D03*
X227160000Y-46720000D03*
X229700000Y-46720000D03*
X232240000Y-46720000D03*
X234780000Y-46720000D03*
X237320000Y-46720000D03*
X239860000Y-46720000D03*
X242400000Y-46720000D03*
X224620000Y-44180000D03*
X227160000Y-44130000D03*
X229700000Y-44130000D03*
X232240000Y-44130000D03*
X234780000Y-44180000D03*
X237320000Y-44180000D03*
X239860000Y-44180000D03*
X242400000Y-44180000D03*
%TD*%
D11*
%TO.C,J3*%
X205920000Y-55000000D03*
D12*
X208460000Y-55000000D03*
X211000000Y-55000000D03*
%TD*%
D11*
%TO.C,J2*%
X205920000Y-71000000D03*
D12*
X208460000Y-71000000D03*
X211000000Y-71000000D03*
%TD*%
D11*
%TO.C,J8*%
X205920000Y-59000000D03*
D12*
X208460000Y-59000000D03*
X211000000Y-59000000D03*
%TD*%
D11*
%TO.C,J5*%
X205925000Y-51000000D03*
D12*
X208465000Y-51000000D03*
X211005000Y-51000000D03*
%TD*%
D11*
%TO.C,J4*%
X205920000Y-67000000D03*
D12*
X208460000Y-67000000D03*
X211000000Y-67000000D03*
%TD*%
D15*
%TO.C,J10*%
X259000000Y-40500000D03*
D16*
X259000000Y-43000000D03*
%TD*%
D11*
%TO.C,J6*%
X205920000Y-63000000D03*
D12*
X208460000Y-63000000D03*
X211000000Y-63000000D03*
%TD*%
M02*
