%TF.GenerationSoftware,KiCad,Pcbnew,9.0.5*%
%TF.CreationDate,2026-04-16T14:47:28-05:00*%
%TF.ProjectId,PCB_sesame,5043425f-7365-4736-916d-652e6b696361,rev?*%
%TF.SameCoordinates,Original*%
%TF.FileFunction,Legend,Top*%
%TF.FilePolarity,Positive*%
%FSLAX46Y46*%
G04 Gerber Fmt 4.6, Leading zero omitted, Abs format (unit mm)*
G04 Created by KiCad (PCBNEW 9.0.5) date 2026-04-16 14:47:28*
%MOMM*%
%LPD*%
G01*
G04 APERTURE LIST*
%ADD10C,0.250000*%
%ADD11C,0.375000*%
%ADD12C,0.500000*%
%ADD13C,0.000000*%
G04 APERTURE END LIST*
D10*
X256500476Y-72169619D02*
X256500476Y-71169619D01*
X256500476Y-71169619D02*
X256833809Y-71883904D01*
X256833809Y-71883904D02*
X257167142Y-71169619D01*
X257167142Y-71169619D02*
X257167142Y-72169619D01*
X257595714Y-71264857D02*
X257643333Y-71217238D01*
X257643333Y-71217238D02*
X257738571Y-71169619D01*
X257738571Y-71169619D02*
X257976666Y-71169619D01*
X257976666Y-71169619D02*
X258071904Y-71217238D01*
X258071904Y-71217238D02*
X258119523Y-71264857D01*
X258119523Y-71264857D02*
X258167142Y-71360095D01*
X258167142Y-71360095D02*
X258167142Y-71455333D01*
X258167142Y-71455333D02*
X258119523Y-71598190D01*
X258119523Y-71598190D02*
X257548095Y-72169619D01*
X257548095Y-72169619D02*
X258167142Y-72169619D01*
D11*
X262453852Y-42425500D02*
X263596710Y-42425500D01*
D10*
X234595901Y-56110809D02*
X234262568Y-56110809D01*
X234262568Y-56634619D02*
X234262568Y-55634619D01*
X234262568Y-55634619D02*
X234738758Y-55634619D01*
X235119711Y-56539380D02*
X235167330Y-56587000D01*
X235167330Y-56587000D02*
X235119711Y-56634619D01*
X235119711Y-56634619D02*
X235072092Y-56587000D01*
X235072092Y-56587000D02*
X235119711Y-56539380D01*
X235119711Y-56539380D02*
X235119711Y-56634619D01*
X236310187Y-56348904D02*
X236786377Y-56348904D01*
X236214949Y-56634619D02*
X236548282Y-55634619D01*
X236548282Y-55634619D02*
X236881615Y-56634619D01*
X237214949Y-56634619D02*
X237214949Y-55634619D01*
X237214949Y-55634619D02*
X237786377Y-56634619D01*
X237786377Y-56634619D02*
X237786377Y-55634619D01*
X238786377Y-55682238D02*
X238691139Y-55634619D01*
X238691139Y-55634619D02*
X238548282Y-55634619D01*
X238548282Y-55634619D02*
X238405425Y-55682238D01*
X238405425Y-55682238D02*
X238310187Y-55777476D01*
X238310187Y-55777476D02*
X238262568Y-55872714D01*
X238262568Y-55872714D02*
X238214949Y-56063190D01*
X238214949Y-56063190D02*
X238214949Y-56206047D01*
X238214949Y-56206047D02*
X238262568Y-56396523D01*
X238262568Y-56396523D02*
X238310187Y-56491761D01*
X238310187Y-56491761D02*
X238405425Y-56587000D01*
X238405425Y-56587000D02*
X238548282Y-56634619D01*
X238548282Y-56634619D02*
X238643520Y-56634619D01*
X238643520Y-56634619D02*
X238786377Y-56587000D01*
X238786377Y-56587000D02*
X238833996Y-56539380D01*
X238833996Y-56539380D02*
X238833996Y-56206047D01*
X238833996Y-56206047D02*
X238643520Y-56206047D01*
X239262568Y-55634619D02*
X239262568Y-56444142D01*
X239262568Y-56444142D02*
X239310187Y-56539380D01*
X239310187Y-56539380D02*
X239357806Y-56587000D01*
X239357806Y-56587000D02*
X239453044Y-56634619D01*
X239453044Y-56634619D02*
X239643520Y-56634619D01*
X239643520Y-56634619D02*
X239738758Y-56587000D01*
X239738758Y-56587000D02*
X239786377Y-56539380D01*
X239786377Y-56539380D02*
X239833996Y-56444142D01*
X239833996Y-56444142D02*
X239833996Y-55634619D01*
X240786377Y-56634619D02*
X240310187Y-56634619D01*
X240310187Y-56634619D02*
X240310187Y-55634619D01*
X241310187Y-55634619D02*
X241500663Y-55634619D01*
X241500663Y-55634619D02*
X241595901Y-55682238D01*
X241595901Y-55682238D02*
X241691139Y-55777476D01*
X241691139Y-55777476D02*
X241738758Y-55967952D01*
X241738758Y-55967952D02*
X241738758Y-56301285D01*
X241738758Y-56301285D02*
X241691139Y-56491761D01*
X241691139Y-56491761D02*
X241595901Y-56587000D01*
X241595901Y-56587000D02*
X241500663Y-56634619D01*
X241500663Y-56634619D02*
X241310187Y-56634619D01*
X241310187Y-56634619D02*
X241214949Y-56587000D01*
X241214949Y-56587000D02*
X241119711Y-56491761D01*
X241119711Y-56491761D02*
X241072092Y-56301285D01*
X241072092Y-56301285D02*
X241072092Y-55967952D01*
X241072092Y-55967952D02*
X241119711Y-55777476D01*
X241119711Y-55777476D02*
X241214949Y-55682238D01*
X241214949Y-55682238D02*
X241310187Y-55634619D01*
X202666666Y-42449619D02*
X202666666Y-43163904D01*
X202666666Y-43163904D02*
X202619047Y-43306761D01*
X202619047Y-43306761D02*
X202523809Y-43402000D01*
X202523809Y-43402000D02*
X202380952Y-43449619D01*
X202380952Y-43449619D02*
X202285714Y-43449619D01*
X203190476Y-43449619D02*
X203380952Y-43449619D01*
X203380952Y-43449619D02*
X203476190Y-43402000D01*
X203476190Y-43402000D02*
X203523809Y-43354380D01*
X203523809Y-43354380D02*
X203619047Y-43211523D01*
X203619047Y-43211523D02*
X203666666Y-43021047D01*
X203666666Y-43021047D02*
X203666666Y-42640095D01*
X203666666Y-42640095D02*
X203619047Y-42544857D01*
X203619047Y-42544857D02*
X203571428Y-42497238D01*
X203571428Y-42497238D02*
X203476190Y-42449619D01*
X203476190Y-42449619D02*
X203285714Y-42449619D01*
X203285714Y-42449619D02*
X203190476Y-42497238D01*
X203190476Y-42497238D02*
X203142857Y-42544857D01*
X203142857Y-42544857D02*
X203095238Y-42640095D01*
X203095238Y-42640095D02*
X203095238Y-42878190D01*
X203095238Y-42878190D02*
X203142857Y-42973428D01*
X203142857Y-42973428D02*
X203190476Y-43021047D01*
X203190476Y-43021047D02*
X203285714Y-43068666D01*
X203285714Y-43068666D02*
X203476190Y-43068666D01*
X203476190Y-43068666D02*
X203571428Y-43021047D01*
X203571428Y-43021047D02*
X203619047Y-42973428D01*
X203619047Y-42973428D02*
X203666666Y-42878190D01*
X253449619Y-62833333D02*
X254163904Y-62833333D01*
X254163904Y-62833333D02*
X254306761Y-62880952D01*
X254306761Y-62880952D02*
X254402000Y-62976190D01*
X254402000Y-62976190D02*
X254449619Y-63119047D01*
X254449619Y-63119047D02*
X254449619Y-63214285D01*
X254449619Y-61833333D02*
X254449619Y-62404761D01*
X254449619Y-62119047D02*
X253449619Y-62119047D01*
X253449619Y-62119047D02*
X253592476Y-62214285D01*
X253592476Y-62214285D02*
X253687714Y-62309523D01*
X253687714Y-62309523D02*
X253735333Y-62404761D01*
X258633333Y-48554380D02*
X258585714Y-48602000D01*
X258585714Y-48602000D02*
X258442857Y-48649619D01*
X258442857Y-48649619D02*
X258347619Y-48649619D01*
X258347619Y-48649619D02*
X258204762Y-48602000D01*
X258204762Y-48602000D02*
X258109524Y-48506761D01*
X258109524Y-48506761D02*
X258061905Y-48411523D01*
X258061905Y-48411523D02*
X258014286Y-48221047D01*
X258014286Y-48221047D02*
X258014286Y-48078190D01*
X258014286Y-48078190D02*
X258061905Y-47887714D01*
X258061905Y-47887714D02*
X258109524Y-47792476D01*
X258109524Y-47792476D02*
X258204762Y-47697238D01*
X258204762Y-47697238D02*
X258347619Y-47649619D01*
X258347619Y-47649619D02*
X258442857Y-47649619D01*
X258442857Y-47649619D02*
X258585714Y-47697238D01*
X258585714Y-47697238D02*
X258633333Y-47744857D01*
X259585714Y-48649619D02*
X259014286Y-48649619D01*
X259300000Y-48649619D02*
X259300000Y-47649619D01*
X259300000Y-47649619D02*
X259204762Y-47792476D01*
X259204762Y-47792476D02*
X259109524Y-47887714D01*
X259109524Y-47887714D02*
X259014286Y-47935333D01*
X206690476Y-39949619D02*
X206690476Y-38949619D01*
X206690476Y-38949619D02*
X207023809Y-39663904D01*
X207023809Y-39663904D02*
X207357142Y-38949619D01*
X207357142Y-38949619D02*
X207357142Y-39949619D01*
X207785714Y-39044857D02*
X207833333Y-38997238D01*
X207833333Y-38997238D02*
X207928571Y-38949619D01*
X207928571Y-38949619D02*
X208166666Y-38949619D01*
X208166666Y-38949619D02*
X208261904Y-38997238D01*
X208261904Y-38997238D02*
X208309523Y-39044857D01*
X208309523Y-39044857D02*
X208357142Y-39140095D01*
X208357142Y-39140095D02*
X208357142Y-39235333D01*
X208357142Y-39235333D02*
X208309523Y-39378190D01*
X208309523Y-39378190D02*
X207738095Y-39949619D01*
X207738095Y-39949619D02*
X208357142Y-39949619D01*
X202666666Y-46449619D02*
X202666666Y-47163904D01*
X202666666Y-47163904D02*
X202619047Y-47306761D01*
X202619047Y-47306761D02*
X202523809Y-47402000D01*
X202523809Y-47402000D02*
X202380952Y-47449619D01*
X202380952Y-47449619D02*
X202285714Y-47449619D01*
X203047619Y-46449619D02*
X203714285Y-46449619D01*
X203714285Y-46449619D02*
X203285714Y-47449619D01*
X248449619Y-56261904D02*
X249259142Y-56261904D01*
X249259142Y-56261904D02*
X249354380Y-56214285D01*
X249354380Y-56214285D02*
X249402000Y-56166666D01*
X249402000Y-56166666D02*
X249449619Y-56071428D01*
X249449619Y-56071428D02*
X249449619Y-55880952D01*
X249449619Y-55880952D02*
X249402000Y-55785714D01*
X249402000Y-55785714D02*
X249354380Y-55738095D01*
X249354380Y-55738095D02*
X249259142Y-55690476D01*
X249259142Y-55690476D02*
X248449619Y-55690476D01*
X249449619Y-54690476D02*
X249449619Y-55261904D01*
X249449619Y-54976190D02*
X248449619Y-54976190D01*
X248449619Y-54976190D02*
X248592476Y-55071428D01*
X248592476Y-55071428D02*
X248687714Y-55166666D01*
X248687714Y-55166666D02*
X248735333Y-55261904D01*
X202666666Y-54449619D02*
X202666666Y-55163904D01*
X202666666Y-55163904D02*
X202619047Y-55306761D01*
X202619047Y-55306761D02*
X202523809Y-55402000D01*
X202523809Y-55402000D02*
X202380952Y-55449619D01*
X202380952Y-55449619D02*
X202285714Y-55449619D01*
X203047619Y-54449619D02*
X203666666Y-54449619D01*
X203666666Y-54449619D02*
X203333333Y-54830571D01*
X203333333Y-54830571D02*
X203476190Y-54830571D01*
X203476190Y-54830571D02*
X203571428Y-54878190D01*
X203571428Y-54878190D02*
X203619047Y-54925809D01*
X203619047Y-54925809D02*
X203666666Y-55021047D01*
X203666666Y-55021047D02*
X203666666Y-55259142D01*
X203666666Y-55259142D02*
X203619047Y-55354380D01*
X203619047Y-55354380D02*
X203571428Y-55402000D01*
X203571428Y-55402000D02*
X203476190Y-55449619D01*
X203476190Y-55449619D02*
X203190476Y-55449619D01*
X203190476Y-55449619D02*
X203095238Y-55402000D01*
X203095238Y-55402000D02*
X203047619Y-55354380D01*
X202666666Y-70449619D02*
X202666666Y-71163904D01*
X202666666Y-71163904D02*
X202619047Y-71306761D01*
X202619047Y-71306761D02*
X202523809Y-71402000D01*
X202523809Y-71402000D02*
X202380952Y-71449619D01*
X202380952Y-71449619D02*
X202285714Y-71449619D01*
X203095238Y-70544857D02*
X203142857Y-70497238D01*
X203142857Y-70497238D02*
X203238095Y-70449619D01*
X203238095Y-70449619D02*
X203476190Y-70449619D01*
X203476190Y-70449619D02*
X203571428Y-70497238D01*
X203571428Y-70497238D02*
X203619047Y-70544857D01*
X203619047Y-70544857D02*
X203666666Y-70640095D01*
X203666666Y-70640095D02*
X203666666Y-70735333D01*
X203666666Y-70735333D02*
X203619047Y-70878190D01*
X203619047Y-70878190D02*
X203047619Y-71449619D01*
X203047619Y-71449619D02*
X203666666Y-71449619D01*
X202666666Y-58449619D02*
X202666666Y-59163904D01*
X202666666Y-59163904D02*
X202619047Y-59306761D01*
X202619047Y-59306761D02*
X202523809Y-59402000D01*
X202523809Y-59402000D02*
X202380952Y-59449619D01*
X202380952Y-59449619D02*
X202285714Y-59449619D01*
X203285714Y-58878190D02*
X203190476Y-58830571D01*
X203190476Y-58830571D02*
X203142857Y-58782952D01*
X203142857Y-58782952D02*
X203095238Y-58687714D01*
X203095238Y-58687714D02*
X203095238Y-58640095D01*
X203095238Y-58640095D02*
X203142857Y-58544857D01*
X203142857Y-58544857D02*
X203190476Y-58497238D01*
X203190476Y-58497238D02*
X203285714Y-58449619D01*
X203285714Y-58449619D02*
X203476190Y-58449619D01*
X203476190Y-58449619D02*
X203571428Y-58497238D01*
X203571428Y-58497238D02*
X203619047Y-58544857D01*
X203619047Y-58544857D02*
X203666666Y-58640095D01*
X203666666Y-58640095D02*
X203666666Y-58687714D01*
X203666666Y-58687714D02*
X203619047Y-58782952D01*
X203619047Y-58782952D02*
X203571428Y-58830571D01*
X203571428Y-58830571D02*
X203476190Y-58878190D01*
X203476190Y-58878190D02*
X203285714Y-58878190D01*
X203285714Y-58878190D02*
X203190476Y-58925809D01*
X203190476Y-58925809D02*
X203142857Y-58973428D01*
X203142857Y-58973428D02*
X203095238Y-59068666D01*
X203095238Y-59068666D02*
X203095238Y-59259142D01*
X203095238Y-59259142D02*
X203142857Y-59354380D01*
X203142857Y-59354380D02*
X203190476Y-59402000D01*
X203190476Y-59402000D02*
X203285714Y-59449619D01*
X203285714Y-59449619D02*
X203476190Y-59449619D01*
X203476190Y-59449619D02*
X203571428Y-59402000D01*
X203571428Y-59402000D02*
X203619047Y-59354380D01*
X203619047Y-59354380D02*
X203666666Y-59259142D01*
X203666666Y-59259142D02*
X203666666Y-59068666D01*
X203666666Y-59068666D02*
X203619047Y-58973428D01*
X203619047Y-58973428D02*
X203571428Y-58925809D01*
X203571428Y-58925809D02*
X203476190Y-58878190D01*
X202666666Y-50449619D02*
X202666666Y-51163904D01*
X202666666Y-51163904D02*
X202619047Y-51306761D01*
X202619047Y-51306761D02*
X202523809Y-51402000D01*
X202523809Y-51402000D02*
X202380952Y-51449619D01*
X202380952Y-51449619D02*
X202285714Y-51449619D01*
X203619047Y-50449619D02*
X203142857Y-50449619D01*
X203142857Y-50449619D02*
X203095238Y-50925809D01*
X203095238Y-50925809D02*
X203142857Y-50878190D01*
X203142857Y-50878190D02*
X203238095Y-50830571D01*
X203238095Y-50830571D02*
X203476190Y-50830571D01*
X203476190Y-50830571D02*
X203571428Y-50878190D01*
X203571428Y-50878190D02*
X203619047Y-50925809D01*
X203619047Y-50925809D02*
X203666666Y-51021047D01*
X203666666Y-51021047D02*
X203666666Y-51259142D01*
X203666666Y-51259142D02*
X203619047Y-51354380D01*
X203619047Y-51354380D02*
X203571428Y-51402000D01*
X203571428Y-51402000D02*
X203476190Y-51449619D01*
X203476190Y-51449619D02*
X203238095Y-51449619D01*
X203238095Y-51449619D02*
X203142857Y-51402000D01*
X203142857Y-51402000D02*
X203095238Y-51354380D01*
X202666666Y-66449619D02*
X202666666Y-67163904D01*
X202666666Y-67163904D02*
X202619047Y-67306761D01*
X202619047Y-67306761D02*
X202523809Y-67402000D01*
X202523809Y-67402000D02*
X202380952Y-67449619D01*
X202380952Y-67449619D02*
X202285714Y-67449619D01*
X203571428Y-66782952D02*
X203571428Y-67449619D01*
X203333333Y-66402000D02*
X203095238Y-67116285D01*
X203095238Y-67116285D02*
X203714285Y-67116285D01*
X262040476Y-39949619D02*
X262040476Y-40663904D01*
X262040476Y-40663904D02*
X261992857Y-40806761D01*
X261992857Y-40806761D02*
X261897619Y-40902000D01*
X261897619Y-40902000D02*
X261754762Y-40949619D01*
X261754762Y-40949619D02*
X261659524Y-40949619D01*
X263040476Y-40949619D02*
X262469048Y-40949619D01*
X262754762Y-40949619D02*
X262754762Y-39949619D01*
X262754762Y-39949619D02*
X262659524Y-40092476D01*
X262659524Y-40092476D02*
X262564286Y-40187714D01*
X262564286Y-40187714D02*
X262469048Y-40235333D01*
X263659524Y-39949619D02*
X263754762Y-39949619D01*
X263754762Y-39949619D02*
X263850000Y-39997238D01*
X263850000Y-39997238D02*
X263897619Y-40044857D01*
X263897619Y-40044857D02*
X263945238Y-40140095D01*
X263945238Y-40140095D02*
X263992857Y-40330571D01*
X263992857Y-40330571D02*
X263992857Y-40568666D01*
X263992857Y-40568666D02*
X263945238Y-40759142D01*
X263945238Y-40759142D02*
X263897619Y-40854380D01*
X263897619Y-40854380D02*
X263850000Y-40902000D01*
X263850000Y-40902000D02*
X263754762Y-40949619D01*
X263754762Y-40949619D02*
X263659524Y-40949619D01*
X263659524Y-40949619D02*
X263564286Y-40902000D01*
X263564286Y-40902000D02*
X263516667Y-40854380D01*
X263516667Y-40854380D02*
X263469048Y-40759142D01*
X263469048Y-40759142D02*
X263421429Y-40568666D01*
X263421429Y-40568666D02*
X263421429Y-40330571D01*
X263421429Y-40330571D02*
X263469048Y-40140095D01*
X263469048Y-40140095D02*
X263516667Y-40044857D01*
X263516667Y-40044857D02*
X263564286Y-39997238D01*
X263564286Y-39997238D02*
X263659524Y-39949619D01*
X202666666Y-62449619D02*
X202666666Y-63163904D01*
X202666666Y-63163904D02*
X202619047Y-63306761D01*
X202619047Y-63306761D02*
X202523809Y-63402000D01*
X202523809Y-63402000D02*
X202380952Y-63449619D01*
X202380952Y-63449619D02*
X202285714Y-63449619D01*
X203571428Y-62449619D02*
X203380952Y-62449619D01*
X203380952Y-62449619D02*
X203285714Y-62497238D01*
X203285714Y-62497238D02*
X203238095Y-62544857D01*
X203238095Y-62544857D02*
X203142857Y-62687714D01*
X203142857Y-62687714D02*
X203095238Y-62878190D01*
X203095238Y-62878190D02*
X203095238Y-63259142D01*
X203095238Y-63259142D02*
X203142857Y-63354380D01*
X203142857Y-63354380D02*
X203190476Y-63402000D01*
X203190476Y-63402000D02*
X203285714Y-63449619D01*
X203285714Y-63449619D02*
X203476190Y-63449619D01*
X203476190Y-63449619D02*
X203571428Y-63402000D01*
X203571428Y-63402000D02*
X203619047Y-63354380D01*
X203619047Y-63354380D02*
X203666666Y-63259142D01*
X203666666Y-63259142D02*
X203666666Y-63021047D01*
X203666666Y-63021047D02*
X203619047Y-62925809D01*
X203619047Y-62925809D02*
X203571428Y-62878190D01*
X203571428Y-62878190D02*
X203476190Y-62830571D01*
X203476190Y-62830571D02*
X203285714Y-62830571D01*
X203285714Y-62830571D02*
X203190476Y-62878190D01*
X203190476Y-62878190D02*
X203142857Y-62925809D01*
X203142857Y-62925809D02*
X203095238Y-63021047D01*
D12*
%TO.C,J9*%
X204540000Y-44380000D02*
X204540000Y-43000000D01*
X205920000Y-44380000D02*
X204540000Y-44380000D01*
X207190000Y-41620000D02*
X212380000Y-41620000D01*
X207190000Y-44380000D02*
X207190000Y-41620000D01*
X207190000Y-44380000D02*
X212380000Y-44380000D01*
X212380000Y-44380000D02*
X212380000Y-41620000D01*
%TO.C,J1*%
X255250000Y-67600000D02*
X255250000Y-68850000D01*
X255250000Y-68850000D02*
X256500000Y-68850000D01*
X255540000Y-55940000D02*
X255540000Y-68560000D01*
X255540000Y-68560000D02*
X261510000Y-68560000D01*
X255550000Y-55950000D02*
X255550000Y-57750000D01*
X255550000Y-57750000D02*
X256300000Y-57750000D01*
X255550000Y-59250000D02*
X255550000Y-65250000D01*
X255550000Y-65250000D02*
X256300000Y-65250000D01*
X255550000Y-66750000D02*
X255550000Y-68550000D01*
X255550000Y-68550000D02*
X256300000Y-68550000D01*
X256300000Y-55950000D02*
X255550000Y-55950000D01*
X256300000Y-57750000D02*
X256300000Y-55950000D01*
X256300000Y-59250000D02*
X255550000Y-59250000D01*
X256300000Y-65250000D02*
X256300000Y-59250000D01*
X256300000Y-66750000D02*
X255550000Y-66750000D01*
X256300000Y-68550000D02*
X256300000Y-66750000D01*
X257800000Y-55950000D02*
X257800000Y-56700000D01*
X257800000Y-56700000D02*
X260750000Y-56700000D01*
X257800000Y-67800000D02*
X260750000Y-67800000D01*
X257800000Y-68550000D02*
X257800000Y-67800000D01*
X260750000Y-56700000D02*
X260750000Y-62250000D01*
X260750000Y-67800000D02*
X260750000Y-62250000D01*
X261510000Y-55940000D02*
X255540000Y-55940000D01*
X261510000Y-68560000D02*
X261510000Y-55940000D01*
%TO.C,C1*%
X262020000Y-50000000D02*
G75*
G02*
X255480000Y-50000000I-3270000J0D01*
G01*
X255480000Y-50000000D02*
G75*
G02*
X262020000Y-50000000I3270000J0D01*
G01*
%TO.C,J7*%
X204540000Y-48380000D02*
X204540000Y-47000000D01*
X205920000Y-48380000D02*
X204540000Y-48380000D01*
X207190000Y-45620000D02*
X212380000Y-45620000D01*
X207190000Y-48380000D02*
X207190000Y-45620000D01*
X207190000Y-48380000D02*
X212380000Y-48380000D01*
X212380000Y-48380000D02*
X212380000Y-45620000D01*
%TO.C,U1*%
X216360000Y-68310000D02*
X250660000Y-68310000D01*
X250660000Y-42910000D01*
X216360000Y-42910000D01*
X216360000Y-68310000D01*
D13*
%TO.C,.*%
G36*
X227198533Y-54466483D02*
G01*
X227288698Y-54538959D01*
X227312510Y-54643258D01*
X227280268Y-54760708D01*
X227180414Y-54826150D01*
X227036713Y-54843433D01*
X226867676Y-54843433D01*
X226867676Y-54643258D01*
X226867676Y-54443082D01*
X227036713Y-54443082D01*
X227198533Y-54466483D01*
G37*
G36*
X227023736Y-56938942D02*
G01*
X227058725Y-57038772D01*
X227129176Y-57245534D01*
X226973187Y-57245534D01*
X226870845Y-57239518D01*
X226836444Y-57210389D01*
X226847981Y-57145447D01*
X226893607Y-57024857D01*
X226933519Y-56938684D01*
X226967591Y-56879856D01*
X226993294Y-56876449D01*
X227023736Y-56938942D01*
G37*
G36*
X221893264Y-52186394D02*
G01*
X221900327Y-52328898D01*
X221906698Y-52554551D01*
X221912345Y-52860445D01*
X221917239Y-53243674D01*
X221921349Y-53701330D01*
X221924643Y-54230504D01*
X221927092Y-54828290D01*
X221928664Y-55491780D01*
X221929329Y-56218066D01*
X221929341Y-56277790D01*
X221930023Y-60358906D01*
X226033613Y-60370493D01*
X230137203Y-60382080D01*
X225989129Y-60392967D01*
X221841056Y-60403853D01*
X221841737Y-56233538D01*
X221842315Y-55458889D01*
X221843775Y-54761819D01*
X221846103Y-54143596D01*
X221849286Y-53605484D01*
X221853310Y-53148748D01*
X221858162Y-52774654D01*
X221863828Y-52484467D01*
X221870295Y-52279453D01*
X221877549Y-52160878D01*
X221885539Y-52129948D01*
X221893264Y-52186394D01*
G37*
G36*
X230960145Y-56000000D02*
G01*
X230960037Y-56642597D01*
X230959722Y-57259665D01*
X230959213Y-57845449D01*
X230958527Y-58394190D01*
X230957676Y-58900131D01*
X230956675Y-59357515D01*
X230955539Y-59760585D01*
X230954282Y-60103582D01*
X230952918Y-60380750D01*
X230951462Y-60586331D01*
X230949928Y-60714569D01*
X230948329Y-60759704D01*
X230948299Y-60759720D01*
X230914577Y-60729890D01*
X230828918Y-60647405D01*
X230702038Y-60522770D01*
X230544658Y-60366488D01*
X230426345Y-60248161D01*
X229916237Y-59736603D01*
X226190030Y-59736603D01*
X222463823Y-59736603D01*
X222463823Y-57082429D01*
X222463823Y-56177934D01*
X224287641Y-56177934D01*
X224287641Y-57082429D01*
X224289037Y-57357533D01*
X224292934Y-57601871D01*
X224298893Y-57801652D01*
X224306477Y-57943086D01*
X224315249Y-58012382D01*
X224317296Y-58016579D01*
X224369539Y-58026397D01*
X224495455Y-58034842D01*
X224679751Y-58041333D01*
X224907139Y-58045286D01*
X225095755Y-58046235D01*
X225844559Y-58046235D01*
X225844559Y-57999682D01*
X225889042Y-57999682D01*
X225930819Y-58025001D01*
X226045833Y-58041270D01*
X226195595Y-58046235D01*
X226502149Y-58046235D01*
X226573344Y-57868301D01*
X226644539Y-57690368D01*
X226973694Y-57690368D01*
X227302850Y-57690368D01*
X227374044Y-57868301D01*
X227445239Y-58046235D01*
X227756983Y-58046235D01*
X227910696Y-58041874D01*
X228022291Y-58030399D01*
X228069207Y-58014217D01*
X228069490Y-58012872D01*
X228052876Y-57963965D01*
X228005940Y-57845638D01*
X227933728Y-57670106D01*
X227841291Y-57449581D01*
X227733677Y-57196277D01*
X227683307Y-57078722D01*
X227296362Y-56177934D01*
X226979420Y-56177934D01*
X226662478Y-56177934D01*
X226275760Y-57065531D01*
X226162315Y-57327968D01*
X226062019Y-57563921D01*
X225980047Y-57760890D01*
X225921574Y-57906376D01*
X225891775Y-57987880D01*
X225889042Y-57999682D01*
X225844559Y-57999682D01*
X225844559Y-57808009D01*
X225844559Y-57569783D01*
X225544296Y-57541425D01*
X225359860Y-57526363D01*
X225184862Y-57515957D01*
X225077221Y-57512751D01*
X224965272Y-57503936D01*
X224917831Y-57469673D01*
X224910408Y-57423468D01*
X224917098Y-57381199D01*
X224948455Y-57354933D01*
X225021413Y-57340909D01*
X225152905Y-57335363D01*
X225310758Y-57334501D01*
X225711108Y-57334501D01*
X225711108Y-57089842D01*
X225711108Y-56845184D01*
X225310758Y-56845184D01*
X225120547Y-56843697D01*
X225002353Y-56836729D01*
X224939244Y-56820516D01*
X224914285Y-56791296D01*
X224910408Y-56756217D01*
X224916513Y-56715725D01*
X224945564Y-56689804D01*
X225013663Y-56675232D01*
X225136914Y-56668791D01*
X225331418Y-56667258D01*
X225355242Y-56667251D01*
X225800075Y-56667251D01*
X225800075Y-56422592D01*
X225800075Y-56177934D01*
X225043858Y-56177934D01*
X224287641Y-56177934D01*
X222463823Y-56177934D01*
X222463823Y-56011789D01*
X222463823Y-54842480D01*
X224206447Y-54842480D01*
X224232969Y-55091331D01*
X224324704Y-55327486D01*
X224481798Y-55536147D01*
X224704401Y-55702511D01*
X224732475Y-55717381D01*
X224966117Y-55795619D01*
X225235557Y-55822254D01*
X225503611Y-55796564D01*
X225563983Y-55777583D01*
X226200425Y-55777583D01*
X226534051Y-55777583D01*
X226867676Y-55777583D01*
X226867676Y-55555166D01*
X226882325Y-55403367D01*
X226925628Y-55335462D01*
X226996619Y-55351457D01*
X227094333Y-55451354D01*
X227166978Y-55553998D01*
X227310589Y-55773647D01*
X227634053Y-55786736D01*
X227793834Y-55791821D01*
X227914833Y-55793078D01*
X227973382Y-55790299D01*
X227975051Y-55789706D01*
X227961046Y-55750749D01*
X227907997Y-55656999D01*
X227826723Y-55527344D01*
X227810794Y-55502962D01*
X227719232Y-55360897D01*
X227671963Y-55273462D01*
X227663582Y-55221497D01*
X227688688Y-55185839D01*
X227715670Y-55165635D01*
X227837596Y-55030432D01*
X227914101Y-54843532D01*
X227940636Y-54632262D01*
X227912653Y-54423945D01*
X227860120Y-54297847D01*
X227765176Y-54185388D01*
X227627664Y-54080562D01*
X227580087Y-54053853D01*
X227488734Y-54012216D01*
X227395437Y-53983907D01*
X227280543Y-53966432D01*
X227124397Y-53957297D01*
X226907342Y-53954005D01*
X226791525Y-53953765D01*
X226200425Y-53953765D01*
X226200425Y-54865674D01*
X226200425Y-55777583D01*
X225563983Y-55777583D01*
X225696050Y-55736061D01*
X225833150Y-55662512D01*
X225949067Y-55581687D01*
X225973594Y-55559581D01*
X226066022Y-55467153D01*
X225865201Y-55282043D01*
X225664381Y-55096933D01*
X225556091Y-55198666D01*
X225407816Y-55284612D01*
X225236658Y-55305217D01*
X225073329Y-55261423D01*
X224968933Y-55180643D01*
X224884505Y-55023674D01*
X224864386Y-54865674D01*
X224861357Y-54841890D01*
X224899175Y-54667290D01*
X224975111Y-54552269D01*
X225120626Y-54464585D01*
X225296166Y-54442306D01*
X225470425Y-54486388D01*
X225548792Y-54534786D01*
X225665374Y-54626489D01*
X225862557Y-54461665D01*
X225972787Y-54363840D01*
X226022684Y-54298250D01*
X226023926Y-54244887D01*
X226007754Y-54212937D01*
X225939607Y-54146162D01*
X225821430Y-54066141D01*
X225735737Y-54019158D01*
X225452058Y-53925431D01*
X225149179Y-53910851D01*
X224848662Y-53975482D01*
X224749510Y-54016138D01*
X224516668Y-54167764D01*
X224348444Y-54365896D01*
X224244988Y-54595735D01*
X224206447Y-54842480D01*
X222463823Y-54842480D01*
X222463823Y-52286976D01*
X222416601Y-52239631D01*
X229191241Y-52239631D01*
X229219068Y-52464066D01*
X229322983Y-52677001D01*
X229371232Y-52737900D01*
X229564358Y-52902707D01*
X229783847Y-52998259D01*
X230011154Y-53019959D01*
X230227735Y-52963213D01*
X230245322Y-52954487D01*
X230417800Y-52824446D01*
X230563823Y-52639751D01*
X230651813Y-52448690D01*
X230676987Y-52224569D01*
X230626645Y-52010938D01*
X230514194Y-51820973D01*
X230353043Y-51667856D01*
X230156600Y-51564763D01*
X229938275Y-51524875D01*
X229739710Y-51552216D01*
X229513736Y-51659988D01*
X229343630Y-51821326D01*
X229234447Y-52019962D01*
X229191241Y-52239631D01*
X222416601Y-52239631D01*
X221941839Y-51763628D01*
X221419855Y-51240280D01*
X226190000Y-51240280D01*
X230960145Y-51240280D01*
X230960145Y-56000000D01*
G37*
D12*
%TO.C,J3*%
X204540000Y-56380000D02*
X204540000Y-55000000D01*
X205920000Y-56380000D02*
X204540000Y-56380000D01*
X207190000Y-53620000D02*
X212380000Y-53620000D01*
X207190000Y-56380000D02*
X207190000Y-53620000D01*
X207190000Y-56380000D02*
X212380000Y-56380000D01*
X212380000Y-56380000D02*
X212380000Y-53620000D01*
%TO.C,J2*%
X204540000Y-72380000D02*
X204540000Y-71000000D01*
X205920000Y-72380000D02*
X204540000Y-72380000D01*
X207190000Y-69620000D02*
X212380000Y-69620000D01*
X207190000Y-72380000D02*
X207190000Y-69620000D01*
X207190000Y-72380000D02*
X212380000Y-72380000D01*
X212380000Y-72380000D02*
X212380000Y-69620000D01*
%TO.C,J8*%
X204540000Y-60380000D02*
X204540000Y-59000000D01*
X205920000Y-60380000D02*
X204540000Y-60380000D01*
X207190000Y-57620000D02*
X212380000Y-57620000D01*
X207190000Y-60380000D02*
X207190000Y-57620000D01*
X207190000Y-60380000D02*
X212380000Y-60380000D01*
X212380000Y-60380000D02*
X212380000Y-57620000D01*
%TO.C,J5*%
X204545000Y-52380000D02*
X204545000Y-51000000D01*
X205925000Y-52380000D02*
X204545000Y-52380000D01*
X207195000Y-49620000D02*
X212385000Y-49620000D01*
X207195000Y-52380000D02*
X207195000Y-49620000D01*
X207195000Y-52380000D02*
X212385000Y-52380000D01*
X212385000Y-52380000D02*
X212385000Y-49620000D01*
%TO.C,J4*%
X204540000Y-68380000D02*
X204540000Y-67000000D01*
X205920000Y-68380000D02*
X204540000Y-68380000D01*
X207190000Y-65620000D02*
X212380000Y-65620000D01*
X207190000Y-68380000D02*
X207190000Y-65620000D01*
X207190000Y-68380000D02*
X212380000Y-68380000D01*
X212380000Y-68380000D02*
X212380000Y-65620000D01*
%TO.C,J10*%
X255490000Y-37940000D02*
X255490000Y-45560000D01*
X255490000Y-45560000D02*
X261460000Y-45560000D01*
X256250000Y-38700000D02*
X256250000Y-41750000D01*
X256250000Y-44800000D02*
X256250000Y-41750000D01*
X259200000Y-37950000D02*
X259200000Y-38700000D01*
X259200000Y-38700000D02*
X256250000Y-38700000D01*
X259200000Y-44800000D02*
X256250000Y-44800000D01*
X259200000Y-45550000D02*
X259200000Y-44800000D01*
X260700000Y-37950000D02*
X260700000Y-39750000D01*
X260700000Y-39750000D02*
X261450000Y-39750000D01*
X260700000Y-41250000D02*
X260700000Y-42250000D01*
X260700000Y-42250000D02*
X261450000Y-42250000D01*
X260700000Y-43750000D02*
X260700000Y-45550000D01*
X260700000Y-45550000D02*
X261450000Y-45550000D01*
X261450000Y-37950000D02*
X260700000Y-37950000D01*
X261450000Y-39750000D02*
X261450000Y-37950000D01*
X261450000Y-41250000D02*
X260700000Y-41250000D01*
X261450000Y-42250000D02*
X261450000Y-41250000D01*
X261450000Y-43750000D02*
X260700000Y-43750000D01*
X261450000Y-45550000D02*
X261450000Y-43750000D01*
X261460000Y-37940000D02*
X255490000Y-37940000D01*
X261460000Y-45560000D02*
X261460000Y-37940000D01*
X261750000Y-37650000D02*
X260500000Y-37650000D01*
X261750000Y-38900000D02*
X261750000Y-37650000D01*
%TO.C,J6*%
X204540000Y-64380000D02*
X204540000Y-63000000D01*
X205920000Y-64380000D02*
X204540000Y-64380000D01*
X207190000Y-61620000D02*
X212380000Y-61620000D01*
X207190000Y-64380000D02*
X207190000Y-61620000D01*
X207190000Y-64380000D02*
X212380000Y-64380000D01*
X212380000Y-64380000D02*
X212380000Y-61620000D01*
%TD*%
M02*
